<svg xmlns="http://www.w3.org/2000/svg" xmlns:xlink="http://www.w3.org/1999/xlink" style="enable-background:new 0 0 512 512" id="Capa_1" width="512" height="512" x="0" y="0" version="1.1" viewBox="0 0 512 512" xml:space="preserve"><g><g><g><path fill="#FFF" d="M298.667,246.538V64c0-23.531-19.135-42.667-42.667-42.667S213.333,40.469,213.333,64v182.538 c-25.381,14.803-42.667,42.021-42.667,73.462s17.285,58.659,42.667,73.462V448c0,23.531,19.135,42.667,42.667,42.667 s42.667-19.135,42.667-42.667v-54.538c25.381-14.803,42.667-42.021,42.667-73.462S324.048,261.341,298.667,246.538z"/><path fill="#FFF" d="M128,75.871V64c0-23.531-19.135-42.667-42.667-42.667S42.667,40.469,42.667,64v11.871C17.285,90.674,0,117.892,0,149.333 s17.285,58.659,42.667,73.462V448c0,23.531,19.135,42.667,42.667,42.667S128,471.531,128,448V222.796 c25.382-14.803,42.667-42.021,42.667-73.462S153.382,90.674,128,75.871z"/><path fill="#FFF" d="M469.333,118.538V64c0-23.531-19.135-42.667-42.667-42.667S384,40.469,384,64v54.538 c-25.381,14.803-42.667,42.021-42.667,73.462s17.285,58.659,42.667,73.462V448c0,23.531,19.135,42.667,42.667,42.667 s42.667-19.135,42.667-42.667V265.462C494.715,250.659,512,223.441,512,192S494.715,133.341,469.333,118.538z"/></g></g></g></svg>